<?xml version="1.0" standalone="no"?>
<!DOCTYPE svg PUBLIC "-//W3C//DTD SVG 20010904//EN"
 "http://www.w3.org/TR/2001/REC-SVG-20010904/DTD/svg10.dtd">
<svg version="1.0" xmlns="http://www.w3.org/2000/svg"
 width="781.000000pt" height="781.000000pt" viewBox="0 0 781.000000 781.000000"
 preserveAspectRatio="xMidYMid meet">
<metadata>
Created by potrace 1.11, written by Peter Selinger 2001-2013
</metadata>
<g transform="translate(0.000000,781.000000) scale(0.100000,-0.100000)"
fill="#000000" stroke="none">
<path d="M3445 5032 c-191 -21 -359 -152 -463 -358 -60 -120 -113 -320 -128
-489 -10 -105 -11 -407 -2 -515 48 -553 294 -880 665 -881 176 -1 302 50 425
172 65 65 84 92 131 190 76 155 115 305 134 504 12 123 8 479 -6 580 -50 353
-175 596 -369 719 -93 58 -262 93 -387 78z m235 -187 c194 -70 317 -263 365
-575 27 -171 26 -623 0 -720 -4 -14 -9 -41 -20 -105 -21 -118 -96 -276 -167
-351 -89 -94 -189 -135 -333 -135 -278 0 -441 183 -510 571 -13 74 -17 132
-20 335 -8 594 131 922 420 991 66 15 208 10 265 -11z"/>
<path d="M7175 4998 c-238 -24 -392 -140 -445 -337 -27 -103 -16 -269 24 -356
51 -108 143 -169 494 -323 230 -102 329 -184 401 -335 50 -104 69 -201 66
-325 -3 -98 -15 -162 -42 -217 -13 -27 -11 -26 21 10 77 87 115 209 114 369 0
182 -58 333 -173 448 -62 62 -52 56 -505 277 -94 45 -188 106 -218 140 -51 57
-67 101 -67 186 0 69 4 87 27 125 102 173 359 224 584 115 136 -66 217 -193
225 -350 2 -33 7 -45 21 -48 20 -6 22 11 18 203 -1 58 -2 158 -3 222 l-2 118
-60 19 c-158 51 -340 74 -480 59z"/>
<path d="M7 4973 c-9 -15 5 -27 63 -53 70 -32 137 -86 173 -137 l29 -41 -6
-144 c-9 -215 -20 -536 -31 -903 -6 -202 -14 -382 -19 -436 -12 -123 -44 -237
-85 -300 -28 -45 -87 -99 -108 -99 -6 0 -13 -10 -16 -21 -6 -21 -4 -21 86 -13
114 11 323 9 400 -4 32 -5 60 -6 62 -1 9 13 -7 39 -24 39 -25 1 -93 52 -119
90 -50 75 -57 124 -56 410 0 146 3 346 7 445 4 99 10 257 13 350 11 319 13
370 14 395 0 14 37 -74 81 -195 44 -121 85 -229 90 -240 5 -11 27 -72 50 -135
23 -63 65 -180 94 -260 30 -80 88 -239 130 -355 42 -115 87 -237 100 -270 12
-33 40 -108 61 -167 21 -59 41 -105 45 -103 3 3 21 45 39 95 l32 90 -42 117
c-23 65 -46 127 -51 138 -5 11 -49 130 -98 265 -84 231 -220 600 -432 1178
l-92 252 -41 1 c-98 2 -187 6 -262 13 -46 5 -84 4 -87 -1z"/>
<path d="M2187 4974 c-5 -4 -155 -13 -215 -14 l-64 0 6 -177 c4 -98 8 -227 11
-288 2 -60 7 -182 10 -270 3 -88 7 -221 10 -295 10 -257 15 -396 21 -585 3
-104 7 -221 9 -260 2 -38 4 -109 5 -157 l2 -88 47 -1 c25 0 57 -2 71 -4 14 -2
73 -6 132 -10 105 -7 107 -7 101 14 -3 12 -13 21 -22 21 -30 0 -96 51 -125 95
-29 47 -60 142 -70 221 -16 111 -15 93 -32 554 -3 91 -8 210 -10 265 -2 55 -6
224 -9 375 -4 230 -3 285 10 333 30 111 83 185 160 222 71 35 73 57 5 54 -28
-2 -51 -3 -53 -5z"/>
<path d="M4770 4961 c0 -12 5 -21 12 -21 24 0 80 -47 113 -95 21 -30 43 -82
56 -130 21 -78 22 -98 24 -740 1 -363 -2 -707 -7 -764 -9 -111 -34 -199 -73
-261 -25 -39 -88 -90 -112 -90 -7 0 -13 -10 -13 -23 l0 -23 83 11 c45 6 85 12
90 13 4 1 43 2 87 2 l80 0 0 1060 0 1060 -47 1 c-27 1 -57 3 -68 4 -11 2 -66
6 -122 10 -100 7 -103 7 -103 -14z"/>
<path d="M5966 4973 c-6 -6 -186 -11 -448 -12 l-298 -1 0 -1060 0 -1060 363
-1 c199 -1 380 -3 402 -4 67 -5 170 -17 177 -21 3 -2 9 10 13 28 3 18 29 127
58 241 43 174 49 210 37 217 -11 7 -24 -8 -56 -63 -85 -146 -159 -206 -285
-233 -78 -16 -465 -23 -528 -9 -28 6 -31 10 -32 48 -1 23 -3 56 -5 72 -3 17
-7 195 -9 397 l-5 366 225 0 c242 0 299 -8 356 -44 62 -39 95 -104 114 -230 5
-34 10 -41 24 -37 14 4 17 12 14 36 -2 18 -6 174 -7 347 -3 249 -6 315 -16
315 -7 0 -23 -27 -34 -60 -59 -168 -90 -181 -449 -184 l-228 -2 6 308 c3 169
7 322 9 338 15 123 18 136 40 144 11 5 117 8 235 8 277 0 360 -16 414 -81 23
-28 72 -124 81 -158 4 -18 13 -28 25 -28 16 0 17 9 13 118 -3 64 -6 161 -6
215 l-1 98 -98 -3 c-54 -2 -100 -4 -101 -5z"/>
<path d="M531 4933 c9 -24 179 -487 274 -748 18 -49 76 -209 130 -355 140
-383 159 -434 201 -549 33 -91 39 -101 46 -80 35 94 363 1016 430 1209 28 80
54 148 57 152 4 4 7 -9 7 -30 0 -20 4 -120 8 -222 4 -102 9 -246 11 -320 3
-74 7 -191 11 -260 21 -458 11 -640 -41 -747 -26 -52 -96 -123 -122 -123 -7 0
-13 -11 -13 -26 0 -19 4 -25 15 -20 8 3 45 8 82 12 38 4 77 8 88 9 11 1 51 3
88 4 l68 1 -5 163 c-7 190 -14 375 -21 577 -3 80 -8 215 -10 300 -3 85 -7 209
-10 275 -3 66 -8 199 -11 295 -3 96 -7 213 -9 260 -2 47 -3 122 -4 168 l-1 82
-64 0 c-60 0 -64 -1 -74 -27 -6 -16 -103 -289 -217 -608 -114 -319 -221 -619
-238 -667 -17 -49 -34 -85 -37 -80 -4 4 -14 27 -23 52 -26 74 -198 543 -207
565 -5 11 -20 52 -33 90 -33 89 -190 519 -223 608 l-26 67 -69 0 -69 0 11 -27z"/>
<path d="M2840 4723 c-132 -122 -217 -310 -255 -563 -14 -89 -13 -393 0 -485
38 -264 131 -461 278 -594 l26 -24 -35 89 c-35 89 -78 238 -88 304 -3 19 -10
62 -16 95 -33 193 -30 555 5 761 28 161 79 334 126 427 11 20 17 37 15 37 -3
0 -28 -21 -56 -47z"/>
<path d="M4187 4715 c59 -118 111 -310 130 -480 10 -87 10 -506 1 -600 -22
-223 -79 -448 -140 -551 -11 -19 -18 -34 -15 -34 11 0 91 88 133 147 83 114
149 288 170 443 3 25 8 54 11 65 9 38 11 340 2 405 -5 36 -11 81 -13 100 -16
119 -80 292 -140 383 -36 53 -102 127 -145 162 -23 19 -22 18 6 -40z"/>
<path d="M6607 4603 c-82 -162 -85 -381 -9 -530 72 -142 150 -199 437 -324
307 -132 404 -210 433 -345 10 -47 10 -145 -2 -192 -22 -95 -97 -191 -182
-233 -42 -20 -63 -24 -144 -23 -87 0 -101 3 -165 34 -167 79 -300 281 -321
486 -5 52 -10 64 -24 64 -10 0 -20 -8 -22 -17 -8 -34 7 -599 17 -630 3 -7 18
-13 36 -13 17 0 97 -16 177 -35 201 -49 277 -57 382 -43 218 30 375 235 386
503 11 280 -109 424 -482 580 -87 37 -192 85 -233 108 -134 73 -225 190 -264
338 -17 66 -22 220 -8 267 12 39 6 41 -12 5z"/>
</g>
</svg>
